<?xml version="1.0" encoding="UTF-8" standalone="no"?>
<svg
   xmlns:dc="http://purl.org/dc/elements/1.1/"
   xmlns:cc="http://creativecommons.org/ns#"
   xmlns:rdf="http://www.w3.org/1999/02/22-rdf-syntax-ns#"
   xmlns:svg="http://www.w3.org/2000/svg"
   xmlns="http://www.w3.org/2000/svg"
   xmlns:sodipodi="http://sodipodi.sourceforge.net/DTD/sodipodi-0.dtd"
   xmlns:inkscape="http://www.inkscape.org/namespaces/inkscape"
   id="svg8"
   version="1.1"
   viewBox="0 0 595.31249 211.66667"
   height="800"
   width="2250"
   sodipodi:docname="LOGO KOLOR nowe wymiary.svg"
   inkscape:version="0.92.2 (5c3e80d, 2017-08-06)">
  <sodipodi:namedview
     pagecolor="#ffffff"
     bordercolor="#666666"
     borderopacity="1"
     objecttolerance="10"
     gridtolerance="10"
     guidetolerance="10"
     inkscape:pageopacity="0"
     inkscape:pageshadow="2"
     inkscape:window-width="1680"
     inkscape:window-height="987"
     id="namedview12"
     showgrid="false"
     inkscape:zoom="0.20020171"
     inkscape:cx="991.5"
     inkscape:cy="483"
     inkscape:window-x="-8"
     inkscape:window-y="-8"
     inkscape:window-maximized="1"
     inkscape:current-layer="svg8" />
  <defs
     id="defs2">
    <pattern
       id="EMFhbasepattern"
       patternUnits="userSpaceOnUse"
       width="6"
       height="6"
       x="0"
       y="0" />
  </defs>
  <metadata
     id="metadata5">
    <rdf:RDF>
      <cc:Work
         rdf:about="">
        <dc:format>image/svg+xml</dc:format>
        <dc:type
           rdf:resource="http://purl.org/dc/dcmitype/StillImage" />
        <dc:title></dc:title>
      </cc:Work>
    </rdf:RDF>
  </metadata>
  <g
     transform="translate(-25.4,-64.695815)"
     id="layer1"
     style="fill:#ea2845;fill-opacity:1">
    <path
       style="fill:#ea2845;fill-opacity:1;fill-rule:evenodd;stroke:none;stroke-width:0.66386783"
       d="m 149.38004,67.85059 c -1.48704,0 -2.86787,0.318663 -4.14249,0.743525 2.70854,1.805703 4.1956,4.195626 4.93914,6.90418 0.0532,0.371758 0.15933,0.637316 0.21251,1.009062 0.0532,0.318663 0.10615,0.637315 0.10615,0.955978 0.21253,4.673583 -1.22153,5.257781 -2.23059,8.019453 -1.54017,3.55832 -1.11531,7.382167 0.74352,10.462499 0.15934,0.371748 0.37176,0.796621 0.63732,1.168389 -2.01816,-13.436592 9.18787,-15.454736 11.2591,-19.650341 0.15933,-3.664532 -2.86787,-6.10755 -5.25777,-7.807042 -2.28369,-1.38083 -4.35497,-1.805703 -6.26689,-1.805703 z m 16.88868,3.027216 c -0.21252,1.221506 -0.0532,0.902852 -0.10613,1.540167 -0.0532,0.424863 -0.0532,0.955966 -0.10613,1.38083 -0.10614,0.424874 -0.21253,0.849735 -0.37178,1.274629 -0.10613,0.424863 -0.26554,0.849737 -0.42487,1.274598 -0.21253,0.424895 -0.37175,0.796642 -0.58419,1.221515 -0.15933,0.212523 -0.26554,0.424863 -0.42487,0.637314 -0.10614,0.159326 -0.21252,0.318654 -0.31865,0.477979 -0.26554,0.371778 -0.53111,0.743525 -0.79664,1.062177 -0.31866,0.318663 -0.5842,0.690411 -0.95599,0.955978 0,0.05318 0,0.05318 0,0.05318 -0.31864,0.265546 -0.6373,0.584199 -1.00905,0.849735 -1.1153,0.849736 -2.3899,1.487051 -3.55831,2.283691 -0.37175,0.265538 -0.74353,0.47799 -1.06218,0.796642 -0.37175,0.265536 -0.69042,0.531073 -1.00905,0.849735 -0.37179,0.318653 -0.63733,0.637315 -0.95599,1.009082 -0.26554,0.318663 -0.58419,0.690412 -0.79662,1.062189 -0.26557,0.371747 -0.5311,0.743516 -0.74355,1.115272 -0.21251,0.424863 -0.37175,0.796641 -0.58419,1.221504 -0.15932,0.424863 -0.31866,0.796642 -0.42487,1.221503 -0.15933,0.477989 -0.26554,0.902862 -0.37176,1.327746 -0.0532,0.212523 -0.0532,0.477969 -0.10614,0.69041 -0.0532,0.212523 -0.0532,0.424863 -0.10613,0.637315 0,0.424862 -0.0532,0.902851 -0.0532,1.327714 0,0.318662 0,0.637314 0.0532,0.955977 0,0.424863 0.0532,0.849726 0.15932,1.327714 0.0532,0.424862 0.15932,0.849735 0.26556,1.27463 0.15934,0.424862 0.26555,0.849735 0.42487,1.274598 0.10615,0.26557 0.26554,0.5311 0.37178,0.74352 l -12.21509,-4.726701 c -2.07127,-0.584199 -4.0894,-1.115273 -6.16067,-1.593261 -1.11527,-0.265537 -2.23055,-0.531094 -3.34586,-0.796641 -3.18655,-0.637304 -6.42617,-1.115273 -9.66584,-1.433925 -0.10612,0 -0.15932,-0.05318 -0.26553,-0.05318 -3.18657,-0.318653 -6.31998,-0.477979 -9.50652,-0.477979 -2.33682,0 -4.67362,0.106129 -6.95731,0.265537 -3.23966,0.212524 -6.479316,0.637315 -9.718948,1.168388 -0.796642,0.106139 -1.593284,0.265567 -2.389927,0.424894 -1.646373,0.318631 -3.239632,0.69041 -4.779797,1.062176 -0.796641,0.212524 -1.593283,0.424874 -2.389925,0.637296 -0.796615,0.318651 -1.540139,0.690431 -2.283689,1.009081 -0.584195,0.265537 -1.168389,0.531085 -1.752585,0.796641 -0.106136,0.05318 -0.212521,0.05318 -0.265539,0.10614 -0.531102,0.265537 -1.009087,0.477958 -1.487047,0.743525 -0.15933,0.05318 -0.265565,0.10613 -0.371776,0.159327 -0.584194,0.265537 -1.168388,0.584189 -1.646374,0.849735 -0.371775,0.159327 -0.743524,0.371768 -1.062179,0.531105 -0.159329,0.10613 -0.371777,0.212513 -0.477987,0.265537 -0.477984,0.265536 -0.955968,0.531075 -1.380836,0.796645 -0.477985,0.26553 -0.902853,0.53107 -1.274627,0.79661 -0.371748,0.26556 -0.743521,0.47799 -1.06218,0.74352 -0.0532,0.0532 -0.106136,0.0532 -0.159328,0.10614 -0.318656,0.21253 -0.690405,0.47798 -1.009061,0.74355 0,0 -0.0532,0.0532 -0.106136,0.10614 -0.265539,0.21252 -0.531103,0.42486 -0.796642,0.63728 -0.106135,0.0532 -0.212521,0.15933 -0.318656,0.21252 -0.265539,0.21253 -0.531078,0.47799 -0.796617,0.69043 -0.0532,0.10614 -0.159328,0.15933 -0.21252,0.21253 -0.318657,0.31865 -0.637314,0.58419 -0.955971,0.90285 -0.0532,0 -0.0532,0.0532 -0.106135,0.10613 -0.318657,0.26554 -0.637312,0.5842 -0.955969,0.90286 -0.0532,0.0532 -0.0532,0.10613 -0.106136,0.10613 -0.265539,0.26554 -0.531077,0.5311 -0.796641,0.84973 -0.106135,0.10614 -0.265539,0.21253 -0.37175,0.31866 -0.265538,0.31866 -0.584195,0.63731 -0.90285,0.95597 -0.0532,0.10613 -0.159329,0.15933 -0.212522,0.26554 -0.424869,0.42489 -0.796642,0.84976 -1.221509,1.27463 -0.0532,0.0532 -0.106135,0.10613 -0.159327,0.15933 -0.849761,0.90285 -1.752613,1.8057 -2.708558,2.60233 -0.955969,0.84973 -1.965032,1.64638 -2.974119,2.33679 -1.06218,0.74355 -2.071243,1.38083 -3.18654,2.01814 -1.062181,0.58419 -2.177479,1.1153 -3.345868,1.59328 -1.115299,0.47798 -2.283689,0.90287 -3.452081,1.27461 -2.230595,0.47798 -4.514285,1.38083 -6.479317,1.54016 -0.424866,0 -0.902851,0.10615 -1.32772,0.15932 -0.477983,0.10614 -0.90285,0.21253 -1.327717,0.31867 -0.424867,0.15932 -0.849759,0.31865 -1.274627,0.47797 -0.424868,0.15933 -0.849735,0.37178 -1.274603,0.58421 -0.371774,0.26553 -0.79664,0.47798 -1.168416,0.74352 -0.37175,0.26554 -0.743525,0.58419 -1.062181,0.90285 -0.371749,0.26557 -0.743523,0.63732 -1.06218,0.95596 -0.318657,0.37179 -0.637313,0.69044 -0.902852,1.06218 -0.265538,0.42487 -0.584195,0.79665 -0.796642,1.22153 -0.265538,0.37177 -0.531077,0.79663 -0.743523,1.22148 -0.212521,0.47801 -0.424867,0.90287 -0.584196,1.38085 -0.159328,0.42488 -0.318656,0.90285 -0.477984,1.38084 -0.106136,0.42486 -0.212521,0.84974 -0.265539,1.2746 0,0.0532 -0.05319,0.10614 -0.05319,0.15932 -0.106136,0.47802 -0.106136,1.11533 -0.159329,1.434 -0.05319,0.37174 -0.106135,0.69039 -0.106135,1.06217 0,0.21252 0,0.47796 0.05319,0.6904 0.05319,0.37179 0.106134,0.69043 0.212521,1.0091 0.106135,0.31862 0.212521,0.63728 0.371749,0.95594 0,0.0532 0,0.0532 0,0.0532 0.159328,0.31867 0.371775,0.63732 0.584196,0.95597 0.212521,0.31867 0.424892,0.63732 0.69043,0.95598 0.265539,0.26553 0.584196,0.58418 0.902852,0.84973 0.318657,0.31865 0.637314,0.58419 1.009063,0.84973 1.274626,1.11531 1.593283,1.48709 3.23966,2.3368 0.265537,0.15934 0.531102,0.26556 0.849759,0.42489 0.05319,0 0.106135,0.0532 0.159328,0.0532 0,0.10613 0,0.15933 0.05319,0.26557 0.05319,0.42487 0.159327,0.84972 0.265538,1.2746 0.106136,0.47799 0.265565,0.90287 0.424893,1.27462 0.159328,0.31866 0.265538,0.63731 0.424867,0.95598 0.05319,0.10614 0.106137,0.21252 0.159329,0.26554 0.212521,0.42485 0.424867,0.79665 0.637287,1.16839 0.265565,0.37176 0.531102,0.74351 0.796641,1.1153 0.26554,0.31864 0.584197,0.69041 0.902853,1.00905 0.318656,0.31867 0.637314,0.58422 1.009088,0.90285 0,0 0.0532,0.0532 0.106134,0.0532 0.318658,0.26557 0.637314,0.53112 0.955971,0.74353 0.37175,0.26555 0.743524,0.47798 1.16839,0.69043 0.371775,0.21252 0.796642,0.42486 1.221509,0.5842 0.318656,0.15933 0.690406,0.26556 1.062181,0.37176 0.0532,0.0532 0.106135,0.0532 0.212521,0.10616 0.21252,0.0532 0.477959,0.10611 0.690405,0.15931 -0.159327,2.86788 -0.212521,5.57643 0.212522,6.53242 0.477961,1.06217 2.814765,-2.17747 5.151573,-5.89511 -0.318656,3.66453 -0.531103,7.96634 0,9.24098 0.584195,1.3277 3.770735,-2.81481 6.532408,-7.38217 37.654294,-8.70986 72.015885,17.31356 75.627285,54.065 -0.69042,-5.73578 -7.75392,-8.92232 -10.99356,-8.12567 -1.59329,3.93006 -4.30185,8.97542 -8.65678,12.10885 0.37176,-3.5052 0.21251,-7.1166 -0.53108,-10.62181 -1.16842,4.88603 -3.45211,9.45343 -6.58555,13.38349 v 0 c -5.04536,0.37174 -10.090725,-2.07127 -12.746187,-5.73578 -0.212522,-0.15933 -0.265539,-0.47799 -0.424867,-0.69042 -0.15933,-0.37179 -0.318657,-0.74352 -0.424868,-1.11531 -0.159328,-0.37174 -0.265538,-0.74352 -0.318656,-1.11526 -0.0532,-0.37179 -0.0532,-0.74354 -0.0532,-1.1684 0,-0.26556 0,-0.53109 0,-0.79663 0.0532,-0.37179 0.159328,-0.74356 0.265539,-1.11532 0.106135,-0.37175 0.212521,-0.74352 0.371774,-1.11529 0.212522,-0.37174 0.371749,-0.74351 0.637314,-1.11527 0.902851,-2.54926 0.902851,-4.62049 -0.743523,-5.842 -0.318658,-0.21252 -0.637314,-0.37177 -1.009088,-0.5311 -0.212523,-0.0532 -0.477985,-0.15933 -0.690406,-0.21252 -0.159329,-0.0532 -0.265538,-0.10615 -0.424867,-0.15933 -0.371775,-0.10614 -0.743549,-0.21253 -1.115299,-0.26554 -0.371774,-0.10613 -0.743523,-0.15933 -1.115297,-0.15933 -0.37175,-0.0532 -0.796643,-0.10614 -1.168392,-0.10614 -0.265538,0 -0.531102,0.0532 -0.796641,0.0532 -0.424866,0 -0.796641,0.0532 -1.168391,0.15933 -0.371774,0.0532 -0.743523,0.10612 -1.115297,0.2125 -0.37175,0.10615 -0.743525,0.21253 -1.115299,0.3718 -0.371749,0.15932 -0.690406,0.31865 -1.062179,0.47797 -0.318631,0.15934 -0.63729,0.37175 -1.009063,0.53108 -12.374414,8.07257 -4.992245,26.97938 3.45208,32.44963 -3.186541,0.58419 -6.426175,1.27463 -7.329028,1.96503 -0.0532,0.0532 -0.106134,0.10614 -0.106134,0.10614 2.283688,1.38082 4.673589,2.54922 7.169698,3.55829 3.398988,1.11529 7.010394,2.12436 8.603677,2.54925 0,0 0,0.0532 0,0.0532 4.408049,0.90285 8.86922,1.22151 13.38348,0.95597 23.52732,-1.64637 42.8059,-19.54414 46.31111,-43.12455 0.10614,0.478 0.21252,0.90285 0.31866,1.38084 v 0 c 0.15933,0.95594 0.37175,1.96502 0.47796,2.97409 0,0 0,0 0,0.0532 0.10614,0.47798 0.15932,0.95596 0.21252,1.38083 0,0.10614 0,0.15933 0,0.21253 0.0532,0.47798 0.10614,0.95597 0.10614,1.38083 0.0532,0.5842 0.10614,1.16839 0.10614,1.75262 0,0.26553 0,0.53108 0,0.84972 0,0.26557 0.0532,0.5842 0.0532,0.84976 0,0.31867 -0.0532,0.6373 -0.0532,0.95595 0,0.26557 0,0.5311 0,0.74352 0,0.37179 -0.0532,0.69042 -0.0532,1.06219 0,0.2125 0,0.42488 -0.0532,0.69043 0,0.37177 -0.0532,0.74351 -0.0532,1.16839 -0.0532,0.15932 -0.0532,0.31865 -0.0532,0.47799 -0.0532,0.42488 -0.10613,0.79664 -0.15934,1.22151 0,0.15934 0,0.31865 -0.0532,0.47799 -0.0532,0.53108 -0.15931,1.00907 -0.2125,1.54015 0,0 0,0.0532 0,0.0532 v 0.0532 c -0.10613,0.47798 -0.21253,1.00906 -0.31867,1.48704 0,0.0532 0,0.10613 0,0.15933 -0.10612,0.47798 -0.21252,0.95597 -0.31864,1.43393 0,0.0532 -0.0532,0.15933 -0.0532,0.21251 -0.10615,0.478 -0.21253,0.95597 -0.37175,1.43398 0,0.0532 0,0.10612 0,0.15932 -0.15932,0.53107 -0.31866,1.00905 -0.42488,1.48704 -0.0532,0.0532 -0.0532,0.10614 -0.0532,0.10614 -0.15934,0.5311 -0.31864,1.06218 -0.47796,1.59326 -0.21252,0.5311 -0.37176,1.00908 -0.58419,1.54018 -0.21252,0.53109 -0.37179,1.06218 -0.58422,1.54015 -0.21252,0.5311 -0.42488,1.00909 -0.6373,1.54017 0,0 -0.0532,0 -0.0532,0 -0.21253,0.47798 -0.4249,1.00908 -0.69046,1.48707 0,0 0,0 0,0 0,0 0,0 0,0 -0.0532,0.15931 -0.10611,0.26554 -0.15931,0.37174 -0.0532,0.0532 -0.0532,0.10613 -0.10613,0.15934 -3.45208,6.95726 -8.55057,13.06481 -14.92364,17.84463 v 0 c -0.42486,0.26554 -0.84975,0.58421 -1.2746,0.90285 0,0 0,0 0,0 -0.10615,0.10614 -0.26557,0.15934 -0.37178,0.26553 -0.37177,0.26555 -0.74353,0.53108 -1.16838,0.79665 l 0.15931,0.31866 h 0.0532 v 0 c 0.74351,-0.10613 1.48704,-0.21252 2.23057,-0.31866 h 0.0532 c 1.38084,-0.21252 2.76168,-0.47799 4.14252,-0.74352 0.37174,-0.0532 0.79664,-0.15932 1.16837,-0.26557 0.26555,-0.0532 0.478,-0.10612 0.74354,-0.15933 0.37177,-0.0532 0.74352,-0.15932 1.1153,-0.2125 0.31865,-0.10614 0.63731,-0.15935 0.95597,-0.26555 5.31089,-1.27463 10.46248,-3.02724 15.40159,-5.09848 -8.44432,11.52464 -19.75655,20.81874 -32.9807,26.92628 6.10755,-0.42488 12.21509,-1.43394 18.11019,-3.13342 21.40295,-6.32 39.4069,-20.71254 50.18803,-40.09734 -2.17747,12.2682 -7.0635,23.95219 -14.28632,34.14912 5.15156,-3.39899 9.87827,-7.32906 14.18011,-11.79022 11.89641,-12.42751 19.70347,-28.20087 22.3589,-45.14269 1.80571,8.39124 2.33681,17.04804 1.54016,25.59858 38.34473,-53.48081 3.18655,-108.92665 -11.52465,-123.53163 -0.0532,-0.10613 -0.10614,-0.15932 -0.10614,-0.26553 -0.0532,0.0532 -0.0532,0.0532 -0.0532,0.10614 0,-0.0532 0,-0.0532 -0.0532,-0.10614 0,0.63731 -0.0532,1.27459 -0.10614,1.91191 -0.15934,1.22151 -0.31865,2.3899 -0.5311,3.55832 -0.26554,1.16839 -0.58419,2.33676 -0.90285,3.50519 -0.37176,1.11527 -0.79661,2.28367 -1.27461,3.39896 -0.47799,1.06217 -1.00908,2.17747 -1.59327,3.23966 -0.58421,1.00908 -1.22152,2.07126 -1.91192,3.02721 -0.69042,1.00909 -1.43395,1.96504 -2.17749,2.86787 -0.79664,0.95599 -1.64637,1.80573 -2.49613,2.65548 -0.53107,0.47798 -1.00905,0.90285 -1.54017,1.3277 -0.42485,0.37179 -0.79661,0.69045 -1.2215,1.06218 -0.95595,0.74354 -1.91192,1.43396 -2.97409,2.07127 -1.00907,0.6373 -2.07124,1.27461 -3.13342,1.80571 -1.1153,0.53109 -2.2306,1.00906 -3.34587,1.48706 -1.1153,0.42485 -2.28369,0.79663 -3.45212,1.11529 -1.16838,0.31864 -2.38988,0.5842 -3.55829,0.79662 -1.22149,0.21253 -2.44301,0.31866 -3.61141,0.42489 -0.84974,0.0532 -1.69948,0.10614 -2.54923,0.10614 -1.22152,0 -2.44301,-0.10614 -3.61141,-0.21252 -1.22151,-0.10614 -2.44303,-0.26558 -3.61142,-0.53112 -1.2215,-0.21251 -2.38992,-0.5311 -3.55832,-0.90283 h -0.0532 c 1.1684,-0.10614 2.33681,-0.21254 3.50522,-0.42489 1.22148,-0.21251 2.38988,-0.47797 3.5583,-0.79664 1.16838,-0.31864 2.33678,-0.69042 3.45208,-1.11529 1.16839,-0.42487 2.28369,-0.95594 3.34587,-1.48706 1.11529,-0.5311 2.12436,-1.11528 3.18654,-1.75259 1.00906,-0.69042 2.01814,-1.38082 2.9741,-2.12437 0.95596,-0.74352 1.8588,-1.54014 2.70857,-2.38989 0.90286,-0.79665 1.69948,-1.6995 2.49612,-2.60236 0.79663,-0.95593 1.54016,-1.91191 2.23058,-2.86787 0.10614,-0.15934 0.21253,-0.37176 0.31867,-0.53109 0.53107,-0.84974 1.06215,-1.69949 1.54013,-2.54924 0.58421,-1.06219 1.11531,-2.12437 1.59329,-3.23964 0.47798,-1.1153 0.90285,-2.2306 1.27462,-3.39898 0.37175,-1.11531 0.6373,-2.28369 0.90285,-3.45208 0.21253,-1.22151 0.42486,-2.38993 0.53109,-3.55831 0.10613,-1.22151 0.21251,-2.44302 0.21251,-3.61141 0,-0.84976 -0.0532,-1.69949 -0.10612,-2.54923 -0.10614,-1.2215 -0.26555,-2.38992 -0.42488,-3.55831 -0.21252,-1.221515 -0.47797,-2.389901 -0.79665,-3.55832 -0.37174,-1.115274 -0.74351,-2.283682 -1.16838,-3.398955 -0.4249,-1.115303 -0.95596,-2.230595 -1.48707,-3.292784 -0.5842,-1.062178 -1.16839,-2.124355 -1.8057,-3.133417 -0.69041,-1.009062 -1.38084,-1.965029 -2.12437,-2.921006 -0.79661,-0.902852 -1.59326,-1.805703 -2.44302,-2.708554 -0.42485,-0.424865 -0.90285,-0.902853 -1.38083,-1.327715 -2.3899,-1.858829 -4.88603,-3.611437 -7.38214,-5.204697 -0.37176,-0.212514 -0.69041,-0.371768 -1.06218,-0.531104 -1.75262,-1.115274 -3.39899,-1.699493 -5.04536,-2.230566 z"
       id="path818"
       inkscape:connector-curvature="0" />
    <path
       style="fill:#ea2845;fill-opacity:1;fill-rule:nonzero;stroke:none;stroke-width:1.14810371"
       d="m 282.9823,206.26811 c 1.5614,-0.7348 3.03093,-1.19404 4.40868,-1.46958 3.39833,-0.5511 5.32718,-1.01031 5.87824,-1.37773 0.91848,-0.55105 1.5614,-1.28587 1.83697,-2.02061 0.36752,-1.28587 0.55103,-3.94948 0.55103,-8.17446 v -7.99076 l 0.092,-6.52119 -0.27554,-9.73583 v -5.78639 c 0,-3.8576 -0.27553,-7.07229 -0.91847,-9.46033 -0.18355,-0.91843 -1.0103,-1.83693 -2.29618,-2.75541 -1.74512,-1.28582 -4.59239,-2.47986 -8.72553,-3.67389 l -0.092,-4.4087 c 0.73482,-0.18355 1.46956,-0.36753 2.11252,-0.45926 0.6429,-0.092 3.12282,-0.73474 7.43962,-1.83695 3.39841,-1.19396 5.60273,-2.11246 6.52123,-2.57171 0.36751,-0.18354 0.82657,-0.4592 1.56141,-0.82662 0.73475,-0.6429 1.5614,-1.194 2.47985,-1.83696 1.83695,-1.28584 4.04129,-3.58203 6.61304,-6.70486 l 4.86795,-0.36752 -0.18355,10.37875 c -0.092,1.0103 -0.092,1.83693 -0.092,2.47991 0,0.5511 0,1.92876 0.092,4.225 5.14347,-4.40873 9.73583,-7.43969 13.96084,-9.18475 5.41897,-2.29624 10.65426,-3.39842 15.52224,-3.39842 5.78641,0 10.92985,1.46958 15.24668,4.31684 4.40869,2.84729 7.25597,6.15382 8.54187,9.82772 1.37766,3.76573 2.02064,11.38912 2.02064,22.68633 l -0.36754,30.12605 c 0,1.3777 0.27553,2.57172 0.73473,3.49023 0.64301,0.45921 2.38812,0.91845 5.14351,1.37772 l 4.50053,0.82657 c 0.55112,0.82665 0.82666,1.74515 0.82666,2.93913 0,0.73477 0,1.74515 -0.092,3.03101 l -18.09397,-1.28586 -5.32717,0.18353 h -4.22502 l -12.21571,0.91846 h -3.12282 c -0.092,-0.82661 -0.092,-1.37771 -0.092,-1.83696 0,-1.10217 0.092,-2.29617 0.18354,-3.58202 0.82662,-0.18354 3.03096,-0.45927 6.42936,-0.9185 0.91846,-0.092 1.92877,-0.36754 3.12282,-0.64292 1.194,-0.45928 1.92875,-1.01027 2.11251,-1.46958 0.45922,-1.10215 0.73476,-3.03095 0.73476,-5.97008 0,-5.23533 -0.092,-9.18474 -0.18355,-11.94021 l 0.092,-10.65432 c 0,-13.04236 -0.73477,-21.12493 -2.38804,-24.24776 -2.38804,-4.68422 -5.87823,-6.98041 -10.56248,-6.98041 -3.39837,0 -6.9804,0.91846 -10.65431,2.66356 -3.76577,1.74512 -7.53148,4.40872 -11.48094,7.99073 l -0.18353,1.56143 0.18353,5.78641 -0.092,6.15383 0.36751,14.78738 -0.18355,2.29624 c 0,10.01139 0.36756,15.70593 1.19405,16.9918 0.82659,1.28586 3.85758,2.66358 9.18476,4.22499 0.18355,1.01029 0.27553,1.83695 0.27553,2.29618 0,0.73482 -0.27553,1.83695 -0.64294,3.39835 -1.92882,0.092 -3.58203,0.092 -4.8679,0.092 -1.28585,0 -3.30655,-0.18354 -6.06197,-0.55105 l -9.82777,-0.1835 c -4.9598,0 -12.03207,0.18353 -21.3087,0.64289 -0.27553,-0.64289 -0.36754,-1.28583 -0.36754,-1.92874 0,-0.45928 0,-1.46962 0.092,-2.93916 z"
       id="path820"
       inkscape:connector-curvature="0" />
    <path
       style="fill:#ea2845;fill-opacity:1;fill-rule:nonzero;stroke:none;stroke-width:1.14810371"
       d="m 391.45432,162.08937 c 1.65328,-5.23531 3.03097,-8.72549 4.31687,-10.37877 3.39838,-5.05161 7.07227,-9.00103 10.92985,-11.84832 3.94943,-2.84728 7.43967,-4.68421 10.56247,-5.60272 4.13314,-1.19401 7.34782,-1.74509 9.91957,-1.74509 5.78637,0 10.4706,0.45923 13.96081,1.37766 3.58203,0.82665 6.61306,2.11256 9.00105,3.76579 3.3984,2.38804 6.15384,4.86794 8.26628,7.25598 2.1125,2.47986 3.7658,5.41899 5.05162,8.72553 1.37774,3.30648 2.11252,7.34779 2.29623,12.03204 l -10.28693,-0.18355 c -2.84732,0 -9.00108,-0.27555 -18.6451,-0.82667 -3.58205,-0.18353 -5.97009,-0.36752 -7.3478,-0.36752 -0.45923,0 -3.76572,0.092 -9.91956,0.092 h -7.99069 c -0.092,0.91843 -0.18355,1.65326 -0.18355,2.20431 0,3.30654 0.45921,6.7049 1.19404,10.3788 0.82657,3.58205 2.02063,6.70487 3.58203,9.46031 1.65325,2.75546 3.58204,5.05164 5.97009,6.98046 2.38805,2.02059 4.86794,3.39834 7.34781,4.31681 l 5.32717,1.74506 c 4.77609,0 7.89887,-0.18357 9.55216,-0.45921 2.93913,-0.64292 5.51084,-1.37773 7.71517,-2.2962 2.2962,-1.01031 4.95981,-2.66358 8.17445,-4.95975 2.20434,1.65329 4.04129,3.03096 5.60271,4.40867 -5.41899,5.87826 -11.11354,10.28696 -16.89997,12.95052 -5.78641,2.66361 -12.30757,3.94948 -19.47169,3.94948 -4.86791,0 -8.81736,-0.36754 -11.94017,-1.28587 -4.04131,-1.1022 -7.80702,-2.75546 -11.11358,-5.05166 -3.30648,-2.29615 -6.15378,-5.14342 -8.54185,-8.44997 -2.388,-3.39834 -4.225,-6.88859 -5.41897,-10.47061 -1.46958,-4.68423 -2.2962,-8.45 -2.2962,-11.20545 0,-5.41897 0.45925,-10.19508 1.28587,-14.51193 z m 53.63902,-3.94938 c -0.092,-3.49027 -0.73475,-6.7049 -2.02063,-9.91961 -1.28587,-3.12281 -3.30654,-5.51081 -6.06195,-7.25593 -2.6636,-1.74514 -5.41906,-2.66359 -8.17445,-2.66359 -4.13315,0 -7.80708,1.83696 -11.20539,5.419 -3.30654,3.6739 -5.14348,8.54185 -5.60271,14.78746 l 21.03311,0.092 c 1.37772,0 3.3065,-0.092 5.69453,-0.27553 1.83696,-0.18355 3.12281,-0.27554 3.85764,-0.27554 0.55103,0 1.37768,0 2.47985,0.092 z"
       id="path822"
       inkscape:connector-curvature="0" />
    <path
       style="fill:#ea2845;fill-opacity:1;fill-rule:nonzero;stroke:none;stroke-width:1.14810371"
       d="m 480.36283,185.14316 c 1.83694,-0.36754 3.21467,-0.55108 4.04131,-0.55108 0.45922,0 1.10219,0 1.92877,0.092 l 0.82664,0.91845 c 3.39835,5.87828 5.51087,9.36849 6.61302,10.65436 2.1125,2.47986 4.22498,4.50051 6.33751,6.06192 1.37771,0.91851 3.58204,2.02064 6.61302,3.03095 2.02064,0.73483 4.22498,1.10219 6.52118,1.10219 3.85762,0 7.16412,-1.19401 9.91955,-3.67392 2.75543,-2.57171 4.13314,-5.23529 4.13314,-8.17442 0,-1.92882 -0.55109,-3.58203 -1.56141,-4.95978 -1.01031,-1.37773 -3.1228,-2.7554 -6.24566,-4.13311 -1.56141,-0.64296 -5.41899,-1.74513 -11.66461,-3.30654 -6.15382,-1.56142 -9.82774,-2.57173 -11.11356,-3.03096 -2.93916,-1.10216 -5.51088,-2.6636 -7.71523,-4.59239 -2.29618,-2.02062 -3.94947,-4.22499 -5.14344,-6.70487 -1.56143,-3.4902 -2.38803,-6.52116 -2.38803,-9.00107 0,-4.68423 0.73474,-8.45 2.02059,-11.48093 1.37774,-2.93913 3.30656,-5.60271 5.78641,-7.8989 1.74509,-1.74514 4.40874,-3.30652 7.99078,-4.68422 3.58203,-1.37772 7.53146,-2.11254 11.57278,-2.11254 5.87827,0 11.02169,0.36754 15.43039,1.19404 4.40868,0.82664 8.17445,2.02064 11.20543,3.58205 0.45924,1.3777 0.91847,4.68423 1.65322,9.73584 0.64297,5.1435 1.01036,8.17445 1.01036,9.09295 0,0.45922 -0.092,0.91845 -0.27553,1.37772 -1.65327,0.45923 -2.93914,0.73476 -4.04131,0.73476 -0.55108,0 -1.46957,-0.092 -2.66361,-0.18352 -0.55106,-0.82666 -1.28587,-2.20437 -2.20434,-3.85764 -2.93908,-5.51087 -5.97008,-9.36845 -9.09292,-11.57281 -3.12277,-2.2962 -6.613,-3.39839 -10.74615,-3.39839 -4.22499,0 -7.80702,1.28589 -10.65433,3.67394 -2.1125,1.83694 -3.12284,4.22499 -3.12284,7.34781 0,2.0206 1.1022,4.04129 3.30656,6.1538 2.11249,2.11249 5.87824,3.76572 11.20541,4.86789 8.08256,1.74513 14.05266,3.58209 17.81841,5.32719 5.51086,2.57171 9.46029,5.69452 11.66464,9.18474 2.2044,3.49024 3.39837,7.53154 3.39837,12.12388 0,7.16414 -2.75539,13.13423 -8.17442,17.9103 -5.32718,4.68422 -13.13421,7.07226 -23.51301,7.07226 -1.28586,0 -4.86792,-0.27553 -10.56245,-0.91845 -2.57177,-0.27556 -5.60272,-0.91849 -9.09293,-1.83695 -0.91848,-0.27555 -3.1228,-1.10219 -6.79672,-2.6636 -0.64295,-0.36752 -1.1022,-0.82662 -1.46958,-1.28585 -0.18358,-0.55109 -0.64292,-3.12281 -1.194,-7.71521 -0.91845,-7.53152 -1.46956,-12.03204 -1.56141,-13.50162 z"
       id="path824"
       inkscape:connector-curvature="0" />
    <path
       style="fill:#ea2845;fill-opacity:1;fill-rule:nonzero;stroke:none;stroke-width:1.14810371"
       d="m 556.04526,141.05627 c 7.25597,-3.03096 12.49128,-6.06197 15.70595,-9.00108 3.3065,-2.93908 6.70487,-7.80703 10.37877,-14.42006 h 5.23531 c 0.55108,1.65327 0.82664,3.30653 0.82664,5.05164 0,3.21464 -0.092,5.69456 -0.092,7.53151 l -0.27555,5.41902 c 0,0.27552 0,1.0103 0.092,2.11247 l 2.1125,0.092 c 0.27555,0 3.21468,-0.092 8.63369,-0.36752 0.45924,0 2.75543,-0.092 6.88854,-0.18355 0.36754,1.65326 0.64298,3.12282 0.64298,4.40866 0,1.46961 -0.27555,3.12278 -0.73477,4.95977 -2.02068,0.27555 -3.49024,0.36756 -4.59244,0.36756 -0.45921,0 -1.46951,0 -2.93911,-0.18356 h -4.77608 l -1.6532,-0.092 -4.40872,0.18354 -0.18358,35.26949 c -0.092,6.79674 0,11.11358 0.36755,12.76684 0.36754,1.74508 1.10217,3.30649 2.20432,4.86788 1.37771,0.64298 2.93912,1.01034 4.68425,1.01034 1.65323,0 2.84726,-0.18357 3.6739,-0.45921 0.82662,-0.36755 2.20432,-1.19402 4.04129,-2.6636 0.3675,-0.36755 1.01029,-0.73479 1.74513,-1.28587 1.46953,1.10218 2.75539,2.2962 3.67389,3.49022 l 0.36754,1.10218 c -2.20433,3.39836 -5.23532,6.06195 -9.18477,7.99072 -3.85758,1.9288 -7.99071,2.8473 -12.39942,2.8473 -5.78638,0 -10.37875,-1.83697 -13.96086,-5.41903 -3.58202,-3.6739 -5.32712,-9.27663 -5.32712,-16.89999 l 0.36754,-16.16516 v -26.36024 l -2.84727,-0.092 -6.70489,0.092 -1.19401,-0.27556 c -0.36754,-0.55109 -0.55106,-1.01031 -0.55106,-1.5614 0,-0.36754 0.092,-1.74509 0.18352,-4.13315 z"
       id="path826"
       inkscape:connector-curvature="0" />
  </g>
</svg>
