<?xml version="1.0" encoding="UTF-8" standalone="no"?><!DOCTYPE svg PUBLIC "-//W3C//DTD SVG 1.1//EN" "http://www.w3.org/Graphics/SVG/1.1/DTD/svg11.dtd"><svg width="100%" height="100%" viewBox="0 0 785 194" version="1.1" xmlns="http://www.w3.org/2000/svg" xmlns:xlink="http://www.w3.org/1999/xlink" xml:space="preserve" xmlns:serif="http://www.serif.com/" style="fill-rule:evenodd;clip-rule:evenodd;stroke-linejoin:round;stroke-miterlimit:2;"><rect id="Artboard1" x="0" y="-0" width="784.141" height="193.265" style="fill:none;"/><path d="M94.332,68.884l15.187,0l-37.418,103.009l-16.507,-0l-37.198,-103.009l15.627,0l30.375,86.941l29.934,-86.941Z" style="fill:#17c1ff;fill-rule:nonzero;stroke:#17c1ff;stroke-width:6.23px;"/><path d="M167.846,65.362c9.245,0 17.609,2.275 25.092,6.824c7.484,4.548 13.353,10.748 17.608,18.598c4.256,7.851 6.383,16.618 6.383,26.303c0,2.788 -0.073,4.915 -0.22,6.383l-84.74,-0c0.587,10.565 4.036,19.589 10.345,27.072c6.31,7.484 14.894,11.226 25.752,11.226c8.805,-0 16.105,-1.651 21.901,-4.953c5.796,-3.301 10.455,-7.887 13.976,-13.756l11.886,7.924c-4.842,7.63 -11.225,13.609 -19.149,17.938c-7.924,4.329 -17.315,6.493 -28.173,6.493c-9.978,0 -18.856,-2.348 -26.633,-7.043c-7.777,-4.696 -13.866,-11.225 -18.269,-19.589c-4.402,-8.364 -6.603,-17.829 -6.603,-28.394c0,-10.565 2.165,-20.029 6.493,-28.393c4.329,-8.364 10.345,-14.894 18.049,-19.589c7.704,-4.696 16.471,-7.044 26.302,-7.044Zm34.116,45.782c-1.467,-10.712 -5.062,-18.746 -10.785,-24.101c-5.722,-5.356 -13.499,-8.034 -23.331,-8.034c-9.538,-0 -17.351,3.045 -23.441,9.134c-6.089,6.09 -9.941,13.757 -11.555,23.001l69.112,-0Z" style="fill:#17c1ff;fill-rule:nonzero;stroke:#17c1ff;stroke-width:6.23px;"/><path d="M288.023,65.362c7.19,0 13.83,1.468 19.919,4.403c6.09,2.934 10.932,7.263 14.527,12.986c3.595,5.722 5.392,12.472 5.392,20.249l0,68.893l-14.967,-0l0,-62.29c0,-20.396 -9.097,-30.594 -27.292,-30.594c-10.565,-0 -18.489,3.742 -23.772,11.225c-5.282,7.484 -7.923,17.535 -7.923,30.154l-0,51.505l-14.967,-0l-0,-103.009l14.967,0l-0,17.168c3.521,-6.603 8.18,-11.702 13.976,-15.297c5.796,-3.595 12.509,-5.393 20.14,-5.393Z" style="fill:#17c1ff;fill-rule:nonzero;stroke:#17c1ff;stroke-width:6.23px;"/><path d="M452.88,12.097l0,159.796l-14.967,-0l0,-15.188c-4.255,5.87 -9.464,10.455 -15.627,13.757c-6.163,3.301 -12.913,4.952 -20.25,4.952c-9.831,0 -18.635,-2.348 -26.412,-7.043c-7.777,-4.696 -13.867,-11.225 -18.269,-19.589c-4.402,-8.364 -6.603,-17.902 -6.603,-28.614c0,-10.565 2.165,-19.993 6.493,-28.283c4.329,-8.291 10.345,-14.784 18.049,-19.479c7.703,-4.696 16.471,-7.044 26.302,-7.044c7.484,0 14.344,1.651 20.58,4.953c6.236,3.301 11.482,7.96 15.737,13.976l0,-72.194l14.967,0Zm-51.284,149.671c7.043,-0 13.316,-1.761 18.819,-5.283c5.503,-3.521 9.795,-8.437 12.876,-14.747c3.081,-6.309 4.622,-13.426 4.622,-21.35c0,-7.923 -1.541,-15.04 -4.622,-21.35c-3.081,-6.309 -7.373,-11.225 -12.876,-14.747c-5.503,-3.521 -11.776,-5.282 -18.819,-5.282c-6.896,-0 -13.059,1.761 -18.489,5.282c-5.429,3.522 -9.684,8.401 -12.766,14.637c-3.081,6.236 -4.622,13.316 -4.622,21.24c0,8.071 1.541,15.261 4.622,21.57c3.082,6.31 7.337,11.226 12.766,14.747c5.43,3.522 11.593,5.283 18.489,5.283Z" style="fill:#17c1ff;fill-rule:nonzero;stroke:#17c1ff;stroke-width:6.23px;"/><path d="M571.076,68.884l-0,103.009l-14.967,-0l-0,-17.169c-3.522,6.604 -8.181,11.703 -13.977,15.298c-5.796,3.595 -12.509,5.392 -20.139,5.392c-7.19,0 -13.83,-1.467 -19.92,-4.402c-6.089,-2.935 -10.931,-7.263 -14.526,-12.986c-3.596,-5.723 -5.393,-12.473 -5.393,-20.25l-0,-68.892l14.967,0l0,62.289c0,20.397 9.098,30.595 27.293,30.595c10.565,-0 18.489,-3.742 23.771,-11.226c5.282,-7.483 7.924,-17.534 7.924,-30.154l-0,-51.504l14.967,0Z" style="fill:#17c1ff;fill-rule:nonzero;stroke:#17c1ff;stroke-width:6.23px;"/><path d="M649.433,65.362c3.521,0 6.896,0.514 10.124,1.541l0,13.647c-3.081,-1.468 -6.456,-2.201 -10.124,-2.201c-6.31,-0 -12.179,1.76 -17.609,5.282c-5.429,3.522 -9.794,8.621 -13.096,15.297c-3.301,6.677 -4.952,14.564 -4.952,23.661l-0,49.304l-14.967,-0l-0,-103.009l14.967,0l-0,20.69c3.962,-7.63 8.987,-13.573 15.077,-17.829c6.089,-4.255 12.949,-6.383 20.58,-6.383Z" style="fill:#17c1ff;fill-rule:nonzero;stroke:#17c1ff;stroke-width:6.23px;"/><path d="M715.684,65.362c9.244,0 17.608,2.275 25.092,6.824c7.483,4.548 13.352,10.748 17.608,18.598c4.255,7.851 6.383,16.618 6.383,26.303c-0,2.788 -0.074,4.915 -0.22,6.383l-84.74,-0c0.587,10.565 4.035,19.589 10.345,27.072c6.309,7.484 14.893,11.226 25.752,11.226c8.804,-0 16.104,-1.651 21.9,-4.953c5.796,-3.301 10.455,-7.887 13.977,-13.756l11.885,7.924c-4.842,7.63 -11.225,13.609 -19.149,17.938c-7.923,4.329 -17.315,6.493 -28.173,6.493c-9.978,0 -18.855,-2.348 -26.632,-7.043c-7.777,-4.696 -13.867,-11.225 -18.269,-19.589c-4.402,-8.364 -6.603,-17.829 -6.603,-28.394c-0,-10.565 2.164,-20.029 6.493,-28.393c4.329,-8.364 10.345,-14.894 18.048,-19.589c7.704,-4.696 16.471,-7.044 26.303,-7.044Zm34.116,45.782c-1.468,-10.712 -5.063,-18.746 -10.785,-24.101c-5.723,-5.356 -13.5,-8.034 -23.331,-8.034c-9.538,-0 -17.352,3.045 -23.441,9.134c-6.09,6.09 -9.942,13.757 -11.556,23.001l69.113,-0Z" style="fill:#17c1ff;fill-rule:nonzero;stroke:#17c1ff;stroke-width:6.23px;"/></svg>