<svg width="541" height="120" viewBox="0 0 541 120" fill="none" xmlns="http://www.w3.org/2000/svg">
<path d="M69.8809 40.5752C69.326 39.7817 68.3895 39.2986 67.3837 39.2986H56.84C55.5567 39.2986 54.3775 40.1267 53.9613 41.3343L35.9954 93.2264L17.752 41.2998C17.3358 40.0922 16.1913 39.2641 14.8733 39.2641H4.01744C3.01163 39.2641 2.10987 39.7472 1.52025 40.5407C0.965319 41.3343 0.826586 42.3694 1.13873 43.301L27.0124 114.549C27.4286 115.757 28.5732 116.55 29.8564 116.55H41.3366C42.6199 116.55 43.7644 115.757 44.1806 114.549L70.193 43.301C70.5399 42.3694 70.4011 41.3343 69.8115 40.5407L69.8809 40.5752Z" fill="#17C1FF"/>
<path d="M144.935 80.3569C145.039 79.2183 145.109 77.6657 145.109 75.63C145.109 68.4535 143.479 61.8634 140.288 55.998C137.097 50.1325 132.588 45.4056 126.969 41.9899C121.316 38.5741 114.9 36.8144 107.963 36.8144C100.61 36.8144 93.9164 38.6086 88.0896 42.1279C82.2628 45.6471 77.6846 50.6155 74.4244 56.8605C71.1989 63.0365 69.5688 70.1096 69.5688 77.8727C69.5688 85.6358 71.2336 92.7089 74.4938 98.9194C77.7887 105.164 82.4362 110.133 88.2977 113.652C94.1592 117.171 100.922 118.965 108.379 118.965C116.391 118.965 123.466 117.344 129.432 114.101C135.363 110.857 140.218 106.337 143.86 100.679C144.727 99.2989 144.346 97.4703 142.993 96.5387L134.739 91.0528C134.045 90.6042 133.212 90.4317 132.38 90.6042C131.582 90.7767 130.854 91.2943 130.438 91.9843C128.287 95.5726 125.374 98.4019 121.836 100.438C118.299 102.439 113.686 103.474 108.102 103.474C101.443 103.474 96.3442 101.3 92.5291 96.7802C89.1995 92.8469 87.1532 88.327 86.3554 83.0136H141.918C143.479 83.0136 144.797 81.8405 144.935 80.2879V80.3569ZM87.4306 68.5225C88.6792 64.3131 90.7949 60.7593 93.7776 57.7576C97.4541 54.1003 102.067 52.3062 107.928 52.3062C113.79 52.3062 118.646 53.8588 122.079 57.0331C124.889 59.6553 126.9 63.5196 128.01 68.488H87.3959L87.4306 68.5225Z" fill="#17C1FF"/>
<path d="M218.013 50.2705C215.204 45.8542 211.388 42.4384 206.672 40.1612C202.059 37.953 196.926 36.8144 191.515 36.8144C185.654 36.8144 180.416 38.2291 175.908 40.9893C174.069 42.1279 172.37 43.4735 170.844 44.9916V42.2659C170.844 40.6097 169.491 39.2296 167.792 39.2296H157.387C155.722 39.2296 154.335 40.5752 154.335 42.2659V113.514C154.335 115.17 155.687 116.55 157.387 116.55H167.792C169.456 116.55 170.844 115.205 170.844 113.514V77.8727C170.844 69.8336 172.509 63.3816 175.803 58.7582C178.89 54.4108 183.503 52.2717 189.85 52.2717C200.741 52.2717 205.804 58.0336 205.804 70.4201V113.514C205.804 115.17 207.157 116.55 208.857 116.55H219.262C220.926 116.55 222.314 115.205 222.314 113.514V65.8658C222.314 59.9313 220.892 54.6869 218.117 50.2705H218.013Z" fill="#17C1FF"/>
<path d="M306.108 0H295.703C294.039 0 292.651 1.34561 292.651 3.03624V45.0951C290.674 43.37 288.489 41.8518 286.165 40.6442C281.414 38.1255 276.107 36.8834 270.454 36.8834C263.101 36.8834 256.407 38.6776 250.58 42.1969C244.754 45.7161 240.176 50.65 236.915 56.8605C233.69 63.002 232.06 70.0406 232.06 77.8382C232.06 85.6358 233.724 92.8469 236.985 99.0229C240.28 105.268 244.927 110.236 250.789 113.756C256.65 117.275 263.344 119.069 270.731 119.069C276.315 119.069 281.553 117.792 286.235 115.274C288.524 114.032 290.674 112.582 292.617 110.857V113.583C292.617 115.239 293.969 116.619 295.669 116.619H306.074C307.738 116.619 309.126 115.274 309.126 113.583V3.03624C309.126 1.38011 307.773 0 306.074 0H306.108ZM292.651 77.9072C292.651 82.9101 291.68 87.43 289.738 91.3633C287.83 95.2621 285.264 98.1948 281.865 100.334C278.501 102.473 274.755 103.508 270.419 103.508C266.084 103.508 262.512 102.473 259.217 100.334C255.887 98.1948 253.32 95.2276 251.413 91.3288C249.471 87.3955 248.5 82.8411 248.5 77.7347C248.5 72.6283 249.471 68.2464 251.413 64.3821C253.32 60.5178 255.887 57.6196 259.217 55.4459C262.512 53.3068 266.188 52.2717 270.419 52.2717C274.651 52.2717 278.501 53.3068 281.865 55.4459C285.194 57.5506 287.83 60.5868 289.738 64.4166C291.68 68.35 292.651 72.8698 292.651 77.8727V77.9072Z" fill="#17C1FF"/>
<path d="M388.308 39.2641H377.903C376.238 39.2641 374.851 40.6097 374.851 42.3004V77.9072C374.851 85.9464 373.186 92.3984 369.891 97.0217C366.804 101.369 362.191 103.508 355.844 103.508C344.954 103.508 339.89 97.7463 339.89 85.3598V42.2659C339.89 40.6097 338.537 39.2296 336.838 39.2296H326.433C324.768 39.2296 323.381 40.5752 323.381 42.2659V89.9142C323.381 95.8486 324.803 101.093 327.577 105.509C330.387 109.926 334.202 113.342 338.919 115.619C343.566 117.827 348.665 118.965 354.075 118.965C359.937 118.965 365.174 117.551 369.683 114.791C371.521 113.652 373.22 112.341 374.781 110.788V113.514C374.781 115.17 376.134 116.55 377.833 116.55H388.238C389.903 116.55 391.29 115.205 391.29 113.514V42.3004C391.29 40.6442 389.938 39.2641 388.238 39.2641H388.308Z" fill="#17C1FF"/>
<path d="M450.737 38.0565C448.206 37.263 445.535 36.8489 442.795 36.8489C436.864 36.8489 431.488 38.5051 426.737 41.8173C424.69 43.2319 422.783 44.9226 421.014 46.8892V42.3349C421.014 40.6787 419.661 39.2986 417.962 39.2986H407.557C405.892 39.2986 404.505 40.6442 404.505 42.3349V113.583C404.505 115.239 405.857 116.619 407.557 116.619H417.962C419.627 116.619 421.014 115.274 421.014 113.583V79.4943C421.014 73.6979 422.054 68.6605 424.135 64.4511C426.182 60.3453 428.887 57.2056 432.182 55.0664C435.477 52.9272 438.945 51.8921 442.76 51.8921C444.876 51.8921 446.749 52.3062 448.483 53.1342C449.419 53.5828 450.529 53.5138 451.396 52.9617C452.263 52.4097 452.818 51.4436 452.818 50.4085V40.9548C452.818 39.6437 451.951 38.4706 450.703 38.091L450.737 38.0565Z" fill="#17C1FF"/>
<path d="M525.827 80.3569C525.931 79.2183 526 77.7002 526 75.63C526 68.4535 524.37 61.8289 521.214 55.998C518.023 50.1325 513.514 45.4056 507.895 41.9899C502.242 38.5741 495.826 36.8489 488.889 36.8489C481.536 36.8489 474.842 38.6431 469.016 42.1624C463.189 45.6816 458.611 50.65 455.35 56.895C452.125 63.071 450.495 70.1441 450.495 77.9072C450.495 85.6703 452.159 92.7434 455.42 98.9539C458.715 105.199 463.362 110.167 469.258 113.687C475.12 117.206 481.883 119 489.34 119C497.352 119 504.427 117.378 510.393 114.135C516.323 110.892 521.179 106.372 524.821 100.714C525.688 99.3334 525.306 97.5048 523.954 96.5732L515.699 91.0873C515.005 90.6387 514.173 90.4662 513.341 90.6387C512.543 90.8112 511.849 91.3288 511.398 92.0188C509.248 95.6071 506.335 98.4364 502.762 100.472C499.225 102.473 494.612 103.508 489.028 103.508C482.369 103.508 477.27 101.335 473.455 96.8147C470.125 92.8814 468.079 88.3615 467.281 83.0481H522.844C524.405 83.0481 525.723 81.875 525.861 80.3224L525.827 80.3569ZM468.322 68.5225C469.57 64.3131 471.686 60.7593 474.669 57.7576C478.345 54.1003 482.958 52.3062 488.82 52.3062C494.681 52.3062 499.537 53.8588 502.97 57.0331C505.78 59.6553 507.791 63.5196 508.901 68.488H468.287L468.322 68.5225Z" fill="#17C1FF"/>
<path d="M530 39C535.523 39 540 34.5228 540 29C540 23.4772 535.523 19 530 19C524.477 19 520 23.4772 520 29C520 34.5228 524.477 39 530 39Z" stroke="#17C1FF" stroke-width="2"/>
<path d="M529.39 28.096C530.011 28.096 530.463 27.9718 530.734 27.7345C531.006 27.5085 531.153 27.1243 531.153 26.5819C531.153 26.0508 531.006 25.678 530.734 25.4407C530.463 25.2147 530.011 25.1017 529.39 25.1017H528.124V28.096H529.39ZM528.124 30.1638V34.5706H525.119V22.9209H529.706C531.243 22.9209 532.362 23.1808 533.073 23.7006C533.797 24.209 534.147 25.0226 534.147 26.1412C534.147 26.9096 533.966 27.5424 533.593 28.0395C533.22 28.5254 532.667 28.8983 531.91 29.1243C532.328 29.226 532.689 29.4407 533.017 29.7684C533.345 30.096 533.672 30.5932 534 31.2712L535.638 34.5706H532.441L531.017 31.678C530.734 31.1017 530.441 30.6949 530.147 30.4915C529.853 30.2768 529.458 30.1638 528.972 30.1638H528.124Z" fill="#17C1FF"/>
</svg>
