<svg fill="none" xmlns="http://www.w3.org/2000/svg" viewBox="0 0 538 100" [class]="class">
    <path d="M197.867 29.234a2.218 2.218 0 0 0-1.799-.923h-7.599c-.924 0-1.77.596-2.078 1.462l-12.939 37.382-13.14-37.401a2.188 2.188 0 0 0-2.078-1.463h-7.821c-.721 0-1.375.347-1.799.924-.404.567-.5 1.318-.279 1.991l18.634 51.321a2.16 2.16 0 0 0 2.049 1.443h8.273c.923 0 1.75-.567 2.049-1.443l18.739-51.32a2.083 2.083 0 0 0-.279-1.992l.048.029.019-.01ZM251.93 57.882c.077-.818.125-1.944.125-3.406 0-5.166-1.174-9.918-3.473-14.14-2.299-4.224-5.55-7.63-9.591-10.092-4.069-2.462-8.696-3.732-13.689-3.732-5.3 0-10.119 1.289-14.314 3.828-4.194 2.54-7.493 6.119-9.841 10.611-2.328 4.444-3.501 9.543-3.501 15.132s1.202 10.687 3.55 15.16c2.376 4.502 5.723 8.08 9.946 10.61 4.223 2.54 9.091 3.83 14.468 3.83 5.772 0 10.871-1.165 15.161-3.502 4.271-2.338 7.773-5.59 10.389-9.668.625-.99.346-2.309-.625-2.982l-5.945-3.954c-.5-.327-1.097-.452-1.703-.327-.577.125-1.096.5-1.395.991a16.993 16.993 0 0 1-6.195 6.09c-2.549 1.442-5.868 2.183-9.889 2.183-4.8 0-8.465-1.568-11.216-4.82-2.396-2.837-3.877-6.089-4.445-9.917h40.018c1.126 0 2.078-.847 2.174-1.963v.048l-.009.02Zm-41.423-8.523c.895-3.03 2.425-5.59 4.57-7.754 2.645-2.636 5.974-3.925 10.197-3.925 4.223 0 7.724 1.116 10.196 3.406 2.021 1.885 3.473 4.675 4.272 8.253h-29.254l.029.03-.01-.01ZM304.569 36.209a19.73 19.73 0 0 0-8.167-7.283c-3.319-1.587-7.023-2.414-10.919-2.414-4.223 0-7.994 1.02-11.245 3.01a19.975 19.975 0 0 0-3.646 2.887v-1.963a2.193 2.193 0 0 0-2.203-2.183h-7.494c-1.202 0-2.203.971-2.203 2.183v51.321c0 1.193.972 2.184 2.203 2.184h7.494c1.202 0 2.203-.972 2.203-2.184V56.092c0-5.79 1.202-10.437 3.569-13.765 2.222-3.136 5.55-4.676 10.12-4.676 7.849 0 11.495 4.146 11.495 13.074v31.042c0 1.193.972 2.184 2.203 2.184h7.494c1.202 0 2.203-.972 2.203-2.184V47.444c0-4.27-1.02-8.051-3.021-11.236h-.086ZM367.991 0h-7.465a2.2 2.2 0 0 0-2.203 2.193v30.302a23.848 23.848 0 0 0-4.675-3.213c-3.415-1.808-7.243-2.703-11.313-2.703-5.29 0-10.11 1.29-14.314 3.82-4.194 2.539-7.493 6.088-9.831 10.562-2.328 4.425-3.502 9.494-3.502 15.112s1.193 10.803 3.55 15.257c2.376 4.492 5.724 8.08 9.947 10.62 4.213 2.53 9.042 3.82 14.372 3.82 4.021 0 7.792-.915 11.168-2.743a23.977 23.977 0 0 0 4.598-3.174v1.962A2.2 2.2 0 0 0 360.526 84h7.494c1.202 0 2.203-.971 2.203-2.184V2.193A2.2 2.2 0 0 0 368.02 0h-.029Zm-9.668 56.121c0 3.608-.702 6.869-2.097 9.697-1.375 2.809-3.222 4.925-5.675 6.464-2.425 1.54-5.118 2.29-8.235 2.29-3.117 0-5.695-.741-8.071-2.29-2.405-1.539-4.252-3.684-5.627-6.483-1.405-2.838-2.097-6.119-2.097-9.803 0-3.684.702-6.83 2.097-9.61 1.375-2.78 3.222-4.877 5.627-6.436 2.367-1.539 5.022-2.289 8.071-2.289 3.05 0 5.82.74 8.235 2.29 2.395 1.51 4.3 3.694 5.675 6.464 1.405 2.828 2.097 6.09 2.097 9.697v.019-.01ZM427.229 28.282h-7.494c-1.202 0-2.203.971-2.203 2.183v25.647c0 5.79-1.202 10.437-3.568 13.765-2.223 3.136-5.551 4.675-10.12 4.675-7.84 0-11.496-4.146-11.496-13.073V30.446a2.192 2.192 0 0 0-2.203-2.183h-7.493c-1.203 0-2.203.971-2.203 2.183V64.77c0 4.271 1.019 8.052 3.02 11.236 2.02 3.184 4.772 5.647 8.167 7.282 3.348 1.587 7.023 2.415 10.919 2.415 4.223 0 7.994-1.02 11.245-3.011a19.908 19.908 0 0 0 3.675-2.886v1.962c0 1.193.971 2.184 2.203 2.184h7.493c1.203 0 2.203-.972 2.203-2.184V30.475a2.192 2.192 0 0 0-2.203-2.184h.048l.01-.01ZM472.201 27.416a19.278 19.278 0 0 0-5.724-.866c-4.271 0-8.147 1.193-11.562 3.579a24.013 24.013 0 0 0-4.127 3.655v-3.28a2.193 2.193 0 0 0-2.203-2.184h-7.494c-1.202 0-2.203.972-2.203 2.184v51.321c0 1.193.972 2.184 2.203 2.184h7.494c1.202 0 2.203-.972 2.203-2.184v-24.56c0-4.174.75-7.8 2.251-10.83 1.472-2.954 3.424-5.224 5.8-6.764 2.376-1.539 4.868-2.289 7.619-2.289 1.52 0 2.876.298 4.127.895a2.17 2.17 0 0 0 2.097-.125 2.194 2.194 0 0 0 1.02-1.838v-6.81c0-.943-.625-1.79-1.52-2.06l.029-.028h-.01ZM526.293 57.882c.077-.818.125-1.915.125-3.406 0-5.166-1.174-9.937-3.444-14.14-2.299-4.224-5.551-7.63-9.591-10.092-4.069-2.462-8.696-3.703-13.689-3.703-5.3 0-10.12 1.289-14.314 3.828-4.194 2.54-7.494 6.118-9.841 10.61-2.318 4.445-3.501 9.544-3.501 15.133 0 5.589 1.202 10.687 3.549 15.16 2.376 4.502 5.724 8.08 9.966 10.61 4.223 2.54 9.091 3.83 14.468 3.83 5.772 0 10.87-1.165 15.161-3.502 4.271-2.338 7.773-5.59 10.389-9.668.625-.99.346-2.309-.625-2.982l-5.945-3.954c-.5-.327-1.097-.452-1.703-.327-.577.125-1.077.5-1.395.991a16.86 16.86 0 0 1-6.224 6.09c-2.549 1.442-5.868 2.183-9.889 2.183-4.8 0-8.465-1.568-11.216-4.82-2.395-2.837-3.877-6.089-4.444-9.917h40.027c1.126 0 2.078-.847 2.174-1.963l-.029.029-.009.01Zm-41.423-8.523c.895-3.03 2.424-5.59 4.57-7.754 2.645-2.636 5.973-3.925 10.196-3.925s7.715 1.116 10.197 3.406c2.02 1.885 3.473 4.675 4.271 8.253h-29.253l.029.03-.01-.01Z" fill="currentColor"/>
    <path fill-rule="evenodd" clip-rule="evenodd" d="M529.294 14.41a6.487 6.487 0 0 0-6.484 6.484 6.487 6.487 0 0 0 6.484 6.484 6.487 6.487 0 0 0 6.484-6.484 6.487 6.487 0 0 0-6.484-6.484Zm-7.927 6.484a7.928 7.928 0 0 1 15.854 0 7.928 7.928 0 0 1-15.854 0Z" fill="currentColor"/>
    <path d="M528.851 20.24c.443 0 .77-.087.972-.26.192-.163.298-.442.298-.827 0-.385-.106-.654-.298-.818-.192-.163-.519-.24-.972-.24h-.913v2.154h.913v-.01Zm-.904 1.49v3.175h-2.164v-8.388h3.299c1.107 0 1.915.183 2.424.558.52.366.77.952.77 1.76 0 .558-.135 1.01-.394 1.366-.27.347-.664.616-1.212.78.298.076.557.23.798.461.24.24.471.597.712 1.087l1.183 2.376h-2.299l-1.029-2.087c-.202-.414-.414-.712-.626-.856-.211-.154-.5-.24-.846-.24h-.606l-.01.009Z" fill="currentColor"/>
    <path d="M33.582 52.802v29.504c0 .529.289 1.03.741 1.289l26.271 15.17a3.061 3.061 0 0 0 3.04 0l26.272-15.17c.461-.27.74-.76.74-1.289V52.802c0-1.144-1.24-1.866-2.232-1.289l-24.78 14.305a3.061 3.061 0 0 1-3.04 0l-24.78-14.305c-.99-.577-2.232.145-2.232 1.29Z" fill="currentColor"/>
    <path d="M27.791 14.786 1.52 29.946A3.03 3.03 0 0 0 0 32.572v30.331c0 .53.289 1.03.74 1.29l25.55 14.756c.991.577 2.232-.144 2.232-1.29V49.052c0-1.087.578-2.088 1.52-2.626l24.78-14.305c.991-.577.991-2.01 0-2.578l-25.55-14.757a1.477 1.477 0 0 0-1.49 0h.01ZM96.437 14.757l26.271 15.16a3.03 3.03 0 0 1 1.52 2.626v30.331c0 .53-.288 1.03-.74 1.29L97.938 78.92c-.991.577-2.232-.145-2.232-1.29V49.023a3.018 3.018 0 0 0-1.52-2.626L69.406 32.09c-.991-.577-.991-2.01 0-2.578l25.55-14.756c.461-.27 1.029-.27 1.49 0h-.009Z" fill="currentColor"/>
</svg>
