<svg version="1.1" class="can-badge can-alert has-solid " viewBox="0 0 36 36" preserveAspectRatio="xMidYMid meet" xmlns="http://www.w3.org/2000/svg" xmlns:xlink="http://www.w3.org/1999/xlink" focusable="false" aria-hidden="true" role="img" width="32" height="32" fill="#ccc"><path class="clr-i-outline clr-i-outline-path-1" d="M32,6H4A2,2,0,0,0,2,8V28a2,2,0,0,0,2,2H32a2,2,0,0,0,2-2V8A2,2,0,0,0,32,6ZM30.46,28H5.66l7-7.24-1.44-1.39L4,26.84V9.52L16.43,21.89a2,2,0,0,0,2.82,0L32,9.21v17.5l-7.36-7.36-1.41,1.41ZM5.31,8H30.38L17.84,20.47Z"/><path class="clr-i-outline--badged clr-i-outline-path-1--badged" d="M32,13.08V26.71l-7.36-7.36-1.41,1.41L30.46,28H5.66l7-7.24-1.44-1.39L4,26.84V9.52L16.43,21.89a2,2,0,0,0,2.82,0l8.83-8.78a7.44,7.44,0,0,1-2-.85l-8.26,8.21L5.31,8H22.81a7.49,7.49,0,0,1-.31-2H4A2,2,0,0,0,2,8V28a2,2,0,0,0,2,2H32a2,2,0,0,0,2-2V12.2A7.45,7.45,0,0,1,32,13.08Z" style="display:none"/><path class="clr-i-outline--alerted clr-i-outline-path-1--alerted" d="M33.68,15.26H32V26.71l-7.36-7.36-1.41,1.41L30.46,28H5.66l7-7.24-1.44-1.39L4,26.84V9.52L16.43,21.89a2,2,0,0,0,2.82,0l6.66-6.63H23.08l-5.24,5.21L5.31,8H20.06l1.15-2H4A2,2,0,0,0,2,8V28a2,2,0,0,0,2,2H32a2,2,0,0,0,2-2V15.24Z" style="display:none"/><path class="clr-i-outline--alerted clr-i-outline-path-2--alerted clr-i-alert" d="M26.85,1l-5.72,9.91a1.28,1.28,0,0,0,1.1,1.91H33.68a1.28,1.28,0,0,0,1.1-1.91L29.06,1A1.28,1.28,0,0,0,26.85,1Z" style="display:none"/><path class="clr-i-solid clr-i-solid-path-1" d="M32.33,6a2,2,0,0,0-.41,0h-28a2,2,0,0,0-.53.08L17.84,20.47Z" style="display:none"/><path class="clr-i-solid clr-i-solid-path-2" d="M33.81,7.39,19.25,21.89a2,2,0,0,1-2.82,0L2,7.5a2,2,0,0,0-.07.5V28a2,2,0,0,0,2,2h28a2,2,0,0,0,2-2V8A2,2,0,0,0,33.81,7.39ZM5.3,28H3.91V26.57l7.27-7.21,1.41,1.41Zm26.61,0H30.51l-7.29-7.23,1.41-1.41,7.27,7.21Z" style="display:none"/><path class="clr-i-solid--badged clr-i-solid-path-1--badged" d="M26,12.34A7.49,7.49,0,0,1,22.5,6H3.92a2,2,0,0,0-.53.08L17.84,20.47Z" style="display:none"/><path class="clr-i-solid--badged clr-i-solid-path-2--badged" d="M30,13.5a7.49,7.49,0,0,1-2-.29l-8.71,8.68a2,2,0,0,1-2.82,0L2,7.5a2,2,0,0,0-.07.5V28a2,2,0,0,0,2,2h28a2,2,0,0,0,2-2V12.39A7.45,7.45,0,0,1,30,13.5ZM5.3,28H3.91V26.57l7.27-7.21,1.41,1.41Zm26.61,0H30.51l-7.29-7.23,1.41-1.41,7.27,7.21Z" style="display:none"/><path class="clr-i-solid--alerted clr-i-solid-path-1--alerted" d="M33.68,15.4H25.77l-6.52,6.49a2,2,0,0,1-2.82,0L2,7.5a2,2,0,0,0-.07.5V28a2,2,0,0,0,2,2h28a2,2,0,0,0,2-2V15.38ZM5.3,28H3.91V26.57l7.27-7.21,1.41,1.41Zm26.61,0H30.51l-7.29-7.23,1.41-1.41,7.27,7.21Z" style="display:none"/><path class="clr-i-solid--alerted clr-i-solid-path-2--alerted" d="M22.94,15.4h-.7A3.68,3.68,0,0,1,19,9.89L21.29,6H3.92a2,2,0,0,0-.53.08L17.84,20.47Z" style="display:none"/><path class="clr-i-solid--alerted clr-i-solid-path-3--alerted clr-i-alert" d="M26.85,1.14,21.13,11A1.28,1.28,0,0,0,22.23,13H33.68A1.28,1.28,0,0,0,34.78,11L29.06,1.14A1.28,1.28,0,0,0,26.85,1.14Z" style="display:none"/><circle class="clr-i-outline--badged clr-i-outline-path-2--badged clr-i-badge" cx="30" cy="5.86" r="5" style="display:none"/><circle class="clr-i-solid--badged clr-i-solid-path-3--badged clr-i-badge" cx="30" cy="6" r="5" style="display:none"/></svg>
