<svg version="1.1" class="can-badge can-alert has-solid " viewBox="0 0 36 36" preserveAspectRatio="xMidYMid meet" xmlns="http://www.w3.org/2000/svg" xmlns:xlink="http://www.w3.org/1999/xlink" focusable="false" role="img" width="32" height="32" fill="currentColor"><path d="M32.5,3H3.5A1.5,1.5,0,0,0,2,4.5v21A1.5,1.5,0,0,0,3.5,27h29A1.5,1.5,0,0,0,34,25.5V4.5A1.5,1.5,0,0,0,32.5,3ZM32,25H4V5H32Z" class="clr-i-outline clr-i-outline-path-1"/><path d="M26,32H24.26a3.61,3.61,0,0,1-1.5-2.52V28.13H21.24V29.5A4.2,4.2,0,0,0,22.17,32H13.83a4.2,4.2,0,0,0,.93-2.52V28.13H13.24V29.5A3.61,3.61,0,0,1,11.74,32H9.94a1,1,0,1,0,0,2H26.06a.92.92,0,0,0,1-1A1,1,0,0,0,26,32Z" class="clr-i-outline clr-i-outline-path-3"/><path d="M26,32H24.26a3.61,3.61,0,0,1-1.5-2.52V28.13H21.24V29.5A4.2,4.2,0,0,0,22.17,32H13.83a4.2,4.2,0,0,0,.93-2.52V28.13H13.24V29.5A3.61,3.61,0,0,1,11.74,32H9.94a1,1,0,1,0,0,2H26.06a.92.92,0,0,0,1-1A1,1,0,0,0,26,32Z" class="clr-i-outline--alerted clr-i-outline-path-1--alerted" style="display:none"/><path d="M33.68,15.4H32V25H4V5H21.87L23,3H3.5A1.5,1.5,0,0,0,2,4.5v21A1.5,1.5,0,0,0,3.5,27h29A1.5,1.5,0,0,0,34,25.5V15.38Z" class="clr-i-outline--alerted clr-i-outline-path-2--alerted" style="display:none"/><path d="M26.85,1.14,21.13,11A1.28,1.28,0,0,0,22.23,13H33.68A1.28,1.28,0,0,0,34.78,11L29.06,1.14A1.28,1.28,0,0,0,26.85,1.14Z" class="clr-i-outline--alerted clr-i-outline-path-4--alerted clr-i-alert" style="display:none"/><path d="M26,32H24.26a3.61,3.61,0,0,1-1.5-2.52V28.13H21.24V29.5A4.2,4.2,0,0,0,22.17,32H13.83a4.2,4.2,0,0,0,.93-2.52V28.13H13.24V29.5A3.61,3.61,0,0,1,11.74,32H9.94a1,1,0,1,0,0,2H26.06a.92.92,0,0,0,1-1A1,1,0,0,0,26,32Z" class="clr-i-outline--badged clr-i-outline-path-1--badged" style="display:none"/><path d="M6.1,23H7.7V8.76H23a7.44,7.44,0,0,1-.43-1.6H6.1Z" class="clr-i-outline--badged clr-i-outline-path-2--badged" style="display:none"/><path d="M32,13.22V25H4V5H22.57a7.45,7.45,0,0,1,.55-2H3.5A1.5,1.5,0,0,0,2,4.5v21A1.5,1.5,0,0,0,3.5,27h29A1.5,1.5,0,0,0,34,25.5V12.34A7.45,7.45,0,0,1,32,13.22Z" class="clr-i-outline--badged clr-i-outline-path-3--badged" style="display:none"/><path d="M26,32H24.26a3.61,3.61,0,0,1-1.5-2.52V28.13H13.24V29.5A3.61,3.61,0,0,1,11.74,32H9.94a1,1,0,1,0,0,2H26.06a.92.92,0,0,0,1-1A1,1,0,0,0,26,32Z" class="clr-i-solid clr-i-solid-path-1" style="display:none"/><path d="M32.5,3H3.5A1.5,1.5,0,0,0,2,4.5v21A1.5,1.5,0,0,0,3.5,27h29A1.5,1.5,0,0,0,34,25.5V4.5A1.5,1.5,0,0,0,32.5,3ZM31,21.83H5V7H31Z" class="clr-i-solid clr-i-solid-path-2" style="display:none"/><path d="M26,32H24.26a3.61,3.61,0,0,1-1.5-2.52V28.13H13.24V29.5A3.61,3.61,0,0,1,11.74,32H9.94a1,1,0,1,0,0,2H26.06a.92.92,0,0,0,1-1A1,1,0,0,0,26,32Z" class="clr-i-solid--alerted clr-i-solid-path-1--alerted" style="display:none"/><path d="M33.68,15.4H31v6.43H5V7H20.71L23,3H3.5A1.5,1.5,0,0,0,2,4.5v21A1.5,1.5,0,0,0,3.5,27h29A1.5,1.5,0,0,0,34,25.5V15.38Z" class="clr-i-solid--alerted clr-i-solid-path-2--alerted" style="display:none"/><path d="M26.85,1.14,21.13,11A1.28,1.28,0,0,0,22.23,13H33.68A1.28,1.28,0,0,0,34.78,11L29.06,1.14A1.28,1.28,0,0,0,26.85,1.14Z" class="clr-i-solid--alerted clr-i-solid-path-3--alerted clr-i-alert" style="display:none"/><path d="M26,32H24.26a3.61,3.61,0,0,1-1.5-2.52V28.13H13.24V29.5A3.61,3.61,0,0,1,11.74,32H9.94a1,1,0,1,0,0,2H26.06a.92.92,0,0,0,1-1A1,1,0,0,0,26,32Z" class="clr-i-solid--badged clr-i-solid-path-1--badged" style="display:none"/><path d="M31,13.43v8.41H5V7H22.57a7.29,7.29,0,0,1,.55-4H3.5A1.5,1.5,0,0,0,2,4.5v21A1.5,1.5,0,0,0,3.5,27h29A1.5,1.5,0,0,0,34,25.5V12.34A7.44,7.44,0,0,1,31,13.43Z" class="clr-i-solid--badged clr-i-solid-path-2--badged" style="display:none"/><polygon points="7.7 8.76 28.13 8.76 29.94 7.16 6.1 7.16 6.1 23 7.7 23 7.7 8.76" class="clr-i-outline clr-i-outline-path-2"/><polygon points="7.7 23 7.7 8.76 19.7 8.76 20.62 7.16 6.1 7.16 6.1 23 7.7 23" class="clr-i-outline--alerted clr-i-outline-path-3--alerted" style="display:none"/><circle cx="30" cy="6" r="5" class="clr-i-outline--badged clr-i-outline-path-4--badged clr-i-badge" style="display:none"/><circle cx="30" cy="6" r="5" class="clr-i-solid--badged clr-i-solid-path-3--badged clr-i-badge" style="display:none"/></svg>