<svg version="1.1" class="can-badge has-solid " viewBox="0 0 36 36" preserveAspectRatio="xMidYMid meet" xmlns="http://www.w3.org/2000/svg" xmlns:xlink="http://www.w3.org/1999/xlink" focusable="false" role="img" width="32" height="32" fill="currentColor"><path d="M23,26a1,1,0,0,1-1,1H8c-.22,0-.43.2-.61.33L4,30V14a1,1,0,0,1,1-1H8.86V11H5a3,3,0,0,0-3,3V32a1,1,0,0,0,.56.89,1,1,0,0,0,1-.1L8.71,29H22.15A2.77,2.77,0,0,0,25,26.13V25H23Z" class="clr-i-outline clr-i-outline-path-1"/><path d="M31,4H14a3,3,0,0,0-3,3V19a3,3,0,0,0,3,3H27.55l4.78,3.71a1,1,0,0,0,1,.11,1,1,0,0,0,.57-.9V7A3,3,0,0,0,31,4ZM32,22.94,28.5,20.21a1,1,0,0,0-.61-.21H14a1,1,0,0,1-1-1V7a1,1,0,0,1,1-1H31A1.1,1.1,0,0,1,32,7.06Z" class="clr-i-outline clr-i-outline-path-2"/><path d="M23,26a1,1,0,0,1-1,1H8c-.22,0-.43.2-.61.33L4,30V14a1,1,0,0,1,1-1H8.86V11H5a3,3,0,0,0-3,3V32a1,1,0,0,0,.56.89,1,1,0,0,0,1-.1L8.71,29H22.15A2.77,2.77,0,0,0,25,26.13V25H23Z" class="clr-i-outline--badged clr-i-outline-path-1--badged" style="display:none"/><path d="M32,13.22v9.72L28.5,20.21a1,1,0,0,0-.61-.21H14a1,1,0,0,1-1-1V7a1,1,0,0,1,1-1H22.5a7.49,7.49,0,0,1,.28-2H14a3,3,0,0,0-3,3V19a3,3,0,0,0,3,3H27.55l4.78,3.71a1,1,0,0,0,1,.11,1,1,0,0,0,.57-.9V12.37A7.45,7.45,0,0,1,32,13.22Z" class="clr-i-outline--badged clr-i-outline-path-2--badged" style="display:none"/><path d="M8,19V11H5a3,3,0,0,0-3,3V32a1,1,0,0,0,.56.89,1,1,0,0,0,1-.1L8.71,29H22.15A2.77,2.77,0,0,0,25,26.13V25H14A6,6,0,0,1,8,19Z" class="clr-i-solid clr-i-solid-path-1" style="display:none"/><path d="M31,4H14a3,3,0,0,0-3,3V19a3,3,0,0,0,3,3H27.55l4.78,3.71a1,1,0,0,0,1,.11,1,1,0,0,0,.57-.9V7A3,3,0,0,0,31,4Z" class="clr-i-solid clr-i-solid-path-2" style="display:none"/><path d="M8,19V11H5a3,3,0,0,0-3,3V32a1,1,0,0,0,.56.89,1,1,0,0,0,1-.1L8.71,29H22.15A2.77,2.77,0,0,0,25,26.13V25H14A6,6,0,0,1,8,19Z" class="clr-i-solid--badged clr-i-solid-path-1--badged" style="display:none"/><path d="M30,13.5A7.48,7.48,0,0,1,22.78,4H14a3,3,0,0,0-3,3V19a3,3,0,0,0,3,3H27.55l4.78,3.71a1,1,0,0,0,1,.11,1,1,0,0,0,.57-.9V12.37A7.45,7.45,0,0,1,30,13.5Z" class="clr-i-solid--badged clr-i-solid-path-2--badged" style="display:none"/><circle cx="30" cy="6" r="5" class="clr-i-outline--badged clr-i-outline-path-3--badged clr-i-badge" style="display:none"/><circle cx="30" cy="6" r="5" class="clr-i-solid--badged clr-i-solid-path-3--badged clr-i-badge" style="display:none"/></svg>