<svg xmlns="http://www.w3.org/2000/svg" width="24" height="24" viewBox="0 0 24 24"><path d="M5 18.184v-11.368c1.163-.413 2-1.511 2-2.816 0-1.657-1.343-3-3-3s-3 1.343-3 3c0 1.305.837 2.403 2 2.816v11.367c-1.163.414-2 1.512-2 2.817 0 1.657 1.343 3 3 3s3-1.343 3-3c0-1.305-.837-2.403-2-2.816zm-2.8-14.184c0-.993.807-1.8 1.8-1.8s1.8.807 1.8 1.8-.807 1.8-1.8 1.8-1.8-.807-1.8-1.8zm1.8 18.8c-.993 0-1.8-.807-1.8-1.8s.807-1.8 1.8-1.8 1.8.807 1.8 1.8-.807 1.8-1.8 1.8zm17-4.616v-11.184c0-2.206-1.794-4-4-4h-3v-3l-4 4 4 4v-3h3c1.103 0 2 .897 2 2v11.184c-1.163.413-2 1.512-2 2.816 0 1.657 1.343 3 3 3s3-1.343 3-3c0-1.305-.837-2.403-2-2.816zm-1 4.616c-.993 0-1.8-.807-1.8-1.8s.807-1.8 1.8-1.8 1.8.807 1.8 1.8-.807 1.8-1.8 1.8z"/></svg>